<?xml version="1.0" encoding="UTF-8"?>
<svg id="Layer_2" data-name="Layer 2" xmlns="http://www.w3.org/2000/svg" viewBox="0 0 428.12 99.99">
  <defs>
    <style>
      .cls-1 {
        fill: #f39a4d;
      }

      .cls-2 {
        fill: #0e487a;
      }
    </style>
  </defs>
  <g id="Layer_1-2" data-name="Layer 1">
    <path class="cls-2" d="M428.12,42.57c0,12.07-21.85,35.61-21.85,35.61,0,0-21.85-23.54-21.85-35.61s9.78-21.85,21.85-21.85,21.85,9.78,21.85,21.85Z"/>
    <g>
      <path class="cls-1" d="M69.45,98.54c-1.25,0-2.47-.1-3.64-.3-1.17-.2-2.28-.5-3.32-.9-1.04-.4-1.97-.89-2.8-1.48-.35-.24-.59-.53-.74-.88-.15-.35-.19-.69-.12-1.02s.21-.62.44-.86.5-.39.82-.44c.32-.05.67.05,1.04.32,1.23.83,2.51,1.43,3.86,1.8,1.35.37,2.83.56,4.46.56,2.35,0,4.07-.43,5.18-1.28,1.11-.85,1.66-1.97,1.66-3.36,0-1.15-.4-2.05-1.2-2.7s-2.15-1.17-4.04-1.54l-4.24-.88c-2.51-.53-4.38-1.41-5.62-2.64-1.24-1.23-1.86-2.87-1.86-4.92,0-1.25.25-2.39.76-3.42.51-1.03,1.23-1.91,2.16-2.66.93-.75,2.03-1.32,3.3-1.72,1.27-.4,2.67-.6,4.22-.6,1.65,0,3.21.23,4.66.68,1.45.45,2.77,1.12,3.94,2,.32.24.53.53.64.86.11.33.13.66.06.98s-.21.59-.44.8c-.23.21-.51.33-.84.36-.33.03-.7-.09-1.1-.36-1.07-.75-2.16-1.29-3.28-1.62-1.12-.33-2.35-.5-3.68-.5s-2.54.21-3.54.64-1.77,1.02-2.32,1.78c-.55.76-.82,1.65-.82,2.66,0,1.23.37,2.19,1.12,2.88.75.69,2,1.23,3.76,1.6l4.2.84c2.67.56,4.65,1.42,5.94,2.58,1.29,1.16,1.94,2.71,1.94,4.66,0,1.23-.25,2.33-.74,3.32-.49.99-1.19,1.83-2.1,2.54-.91.71-2.01,1.25-3.32,1.64-1.31.39-2.77.58-4.4.58Z"/>
      <path class="cls-1" d="M96.97,98.54c-2.67,0-4.97-.59-6.92-1.78s-3.46-2.87-4.54-5.04c-1.08-2.17-1.62-4.73-1.62-7.66,0-2.21.31-4.21.92-5.98.61-1.77,1.49-3.29,2.62-4.56,1.13-1.27,2.51-2.23,4.12-2.9,1.61-.67,3.42-1,5.42-1,2.67,0,4.97.59,6.92,1.76,1.95,1.17,3.45,2.84,4.52,5s1.6,4.71,1.6,7.64c0,2.21-.31,4.21-.92,6-.61,1.79-1.49,3.32-2.62,4.6-1.13,1.28-2.5,2.25-4.1,2.92-1.6.67-3.4,1-5.4,1ZM89.81,99.26c-.21.32-.46.53-.74.64s-.57.12-.86.04-.55-.23-.76-.44-.34-.48-.38-.8c-.04-.32.05-.65.26-1l1.68-2.84,1.04-1.8,11.52-19.76.84-1.48,1.72-2.92c.19-.32.42-.53.7-.64s.57-.12.88-.04.57.23.78.44.34.47.38.78c.04.31-.05.65-.26,1.02l-1.68,2.84-1.08,1.8-11.52,19.72-.84,1.48-1.68,2.96ZM96.97,95.26c1.92,0,3.56-.44,4.92-1.32,1.36-.88,2.41-2.16,3.14-3.84s1.1-3.69,1.1-6.04c0-3.55-.79-6.29-2.38-8.24-1.59-1.95-3.85-2.92-6.78-2.92-1.92,0-3.57.43-4.94,1.3-1.37.87-2.42,2.13-3.14,3.8-.72,1.67-1.08,3.69-1.08,6.06,0,3.52.8,6.27,2.4,8.24,1.6,1.97,3.85,2.96,6.76,2.96Z"/>
      <path class="cls-1" d="M117.61,98.46c-.59,0-1.04-.17-1.36-.5s-.48-.81-.48-1.42v-24.68c0-.61.17-1.08.5-1.4.33-.32.79-.48,1.38-.48h9.52c3.04,0,5.38.71,7.02,2.14,1.64,1.43,2.46,3.45,2.46,6.06,0,1.71-.37,3.17-1.12,4.38-.75,1.21-1.83,2.14-3.24,2.78-1.41.64-3.12.96-5.12.96l.4-.56h.88c1.07,0,1.99.27,2.78.8.79.53,1.49,1.39,2.1,2.56l3.68,6.76c.24.43.35.84.32,1.24s-.17.73-.44.98c-.27.25-.65.38-1.16.38-.53,0-.96-.11-1.28-.34-.32-.23-.6-.57-.84-1.02l-4.32-7.92c-.59-1.12-1.25-1.86-2-2.22-.75-.36-1.75-.54-3-.54h-4.8v10.12c0,.61-.15,1.09-.46,1.42-.31.33-.78.5-1.42.5ZM119.49,83.54h7.08c2.13,0,3.73-.45,4.8-1.34,1.07-.89,1.6-2.21,1.6-3.94s-.53-3.04-1.6-3.92-2.67-1.32-4.8-1.32h-7.08v10.52Z"/>
      <path class="cls-1" d="M142.69,89.02c-.43,0-.79-.15-1.08-.44s-.44-.65-.44-1.08.15-.78.44-1.06c.29-.28.65-.42,1.08-.42h8.92c.4,0,.75.14,1.06.42.31.28.46.63.46,1.06s-.15.79-.46,1.08c-.31.29-.66.44-1.06.44h-8.92Z"/>
      <path class="cls-1" d="M167.69,98.46c-.56,0-1.01-.13-1.36-.38-.35-.25-.64-.65-.88-1.18l-10.84-24.76c-.21-.51-.27-.94-.18-1.3.09-.36.29-.64.6-.84.31-.2.67-.3,1.1-.3.56,0,.98.12,1.26.36s.53.6.74,1.08l10.32,23.96h-1.4l10.28-23.96c.21-.48.47-.84.76-1.08.29-.24.71-.36,1.24-.36.43,0,.78.11,1.06.32.28.21.45.5.52.86.07.36,0,.78-.18,1.26l-10.88,24.76c-.21.53-.49.93-.82,1.18-.33.25-.78.38-1.34.38Z"/>
      <path class="cls-1" d="M182.29,98.46c-.48,0-.86-.11-1.14-.32-.28-.21-.45-.51-.5-.88-.05-.37.03-.79.24-1.24l10.92-24.72c.24-.56.55-.97.92-1.22.37-.25.79-.38,1.24-.38s.86.13,1.22.38c.36.25.67.66.94,1.22l10.92,24.72c.21.45.3.87.26,1.26-.04.39-.19.68-.46.88-.27.2-.64.3-1.12.3-.53,0-.96-.14-1.28-.42-.32-.28-.6-.69-.84-1.22l-2.84-6.64,1.72.96h-17.12l1.72-.96-2.84,6.64c-.24.59-.51,1.01-.8,1.26-.29.25-.68.38-1.16.38ZM193.88,74.18l-6.24,14.76-.96-.84h14.48l-.92.84-6.28-14.76h-.08Z"/>
      <path class="cls-1" d="M213.84,98.46c-.59,0-1.04-.17-1.36-.5s-.48-.81-.48-1.42v-24.68c0-.61.17-1.08.5-1.4.33-.32.79-.48,1.38-.48h9.52c3.04,0,5.38.71,7.02,2.14,1.64,1.43,2.46,3.45,2.46,6.06,0,1.71-.37,3.17-1.12,4.38-.75,1.21-1.83,2.14-3.24,2.78-1.41.64-3.12.96-5.12.96l.4-.56h.88c1.07,0,1.99.27,2.78.8.79.53,1.49,1.39,2.1,2.56l3.68,6.76c.24.43.35.84.32,1.24s-.17.73-.44.98c-.27.25-.65.38-1.16.38-.53,0-.96-.11-1.28-.34-.32-.23-.6-.57-.84-1.02l-4.32-7.92c-.59-1.12-1.25-1.86-2-2.22-.75-.36-1.75-.54-3-.54h-4.8v10.12c0,.61-.15,1.09-.46,1.42-.31.33-.78.5-1.42.5ZM215.72,83.54h7.08c2.13,0,3.73-.45,4.8-1.34,1.07-.89,1.6-2.21,1.6-3.94s-.53-3.04-1.6-3.92-2.67-1.32-4.8-1.32h-7.08v10.52Z"/>
      <path class="cls-1" d="M238.04,98.46c-.48,0-.86-.11-1.14-.32-.28-.21-.45-.51-.5-.88-.05-.37.03-.79.24-1.24l10.92-24.72c.24-.56.55-.97.92-1.22.37-.25.79-.38,1.24-.38s.86.13,1.22.38c.36.25.67.66.94,1.22l10.92,24.72c.21.45.3.87.26,1.26-.04.39-.19.68-.46.88-.27.2-.64.3-1.12.3-.53,0-.96-.14-1.28-.42-.32-.28-.6-.69-.84-1.22l-2.84-6.64,1.72.96h-17.12l1.72-.96-2.84,6.64c-.24.59-.51,1.01-.8,1.26-.29.25-.68.38-1.16.38ZM249.64,74.18l-6.24,14.76-.96-.84h14.48l-.92.84-6.28-14.76h-.08Z"/>
      <path class="cls-1" d="M269.48,98.46c-.53,0-.95-.16-1.26-.48-.31-.32-.46-.76-.46-1.32v-25.08c0-.61.15-1.08.44-1.4.29-.32.68-.48,1.16-.48.45,0,.8.08,1.04.24s.51.44.8.84l16.96,22.48h-1v-21.76c0-.59.15-1.03.46-1.34s.74-.46,1.3-.46.99.15,1.28.46c.29.31.44.75.44,1.34v25.16c0,.56-.14,1-.42,1.32-.28.32-.65.48-1.1.48-.43,0-.78-.09-1.06-.26-.28-.17-.57-.46-.86-.86l-16.92-22.48h.92v21.8c0,.56-.15,1-.44,1.32-.29.32-.72.48-1.28.48Z"/>
      <path class="cls-1" d="M310.4,98.54c-3.01,0-5.57-.58-7.66-1.74-2.09-1.16-3.68-2.82-4.76-4.98-1.08-2.16-1.62-4.73-1.62-7.72,0-2.24.31-4.25.92-6.02.61-1.77,1.51-3.29,2.7-4.56,1.19-1.27,2.63-2.23,4.32-2.9,1.69-.67,3.61-1,5.74-1,1.65,0,3.25.22,4.8.66,1.55.44,2.96,1.15,4.24,2.14.32.24.53.52.62.84.09.32.1.64.02.96s-.23.6-.46.84-.51.38-.84.42c-.33.04-.69-.06-1.06-.3-1.09-.8-2.23-1.37-3.42-1.72-1.19-.35-2.49-.52-3.9-.52-2.11,0-3.89.43-5.36,1.3-1.47.87-2.57,2.13-3.3,3.8s-1.1,3.69-1.1,6.06c0,3.65.86,6.43,2.58,8.32,1.72,1.89,4.27,2.84,7.66,2.84,1.25,0,2.47-.12,3.66-.36,1.19-.24,2.33-.57,3.42-1l-.8,2v-9.64h-5.44c-.48,0-.86-.13-1.14-.4-.28-.27-.42-.63-.42-1.08s.14-.8.42-1.04c.28-.24.66-.36,1.14-.36h7.08c.48,0,.86.13,1.14.4.28.27.42.65.42,1.16v10.28c0,.43-.08.79-.24,1.1-.16.31-.43.53-.8.66-1.12.45-2.45.83-4,1.12-1.55.29-3.07.44-4.56.44Z"/>
      <path class="cls-1" d="M328.56,98.18c-.64,0-1.13-.17-1.48-.52s-.52-.84-.52-1.48v-24.2c0-.64.17-1.13.52-1.48s.84-.52,1.48-.52h14.72c.51,0,.9.13,1.18.38.28.25.42.62.42,1.1,0,.51-.14.89-.42,1.16s-.67.4-1.18.4h-13.12v9.32h12.28c.51,0,.89.13,1.16.4.27.27.4.64.4,1.12,0,.51-.13.89-.4,1.14-.27.25-.65.38-1.16.38h-12.28v9.76h13.12c.51,0,.9.13,1.18.38.28.25.42.63.42,1.14s-.14.89-.42,1.14c-.28.25-.67.38-1.18.38h-14.72Z"/>
      <path class="cls-1" d="M351.84,98.46c-.59,0-1.04-.17-1.36-.5s-.48-.81-.48-1.42v-24.68c0-.61.17-1.08.5-1.4.33-.32.79-.48,1.38-.48h9.52c3.04,0,5.38.71,7.02,2.14,1.64,1.43,2.46,3.45,2.46,6.06,0,1.71-.37,3.17-1.12,4.38-.75,1.21-1.83,2.14-3.24,2.78-1.41.64-3.12.96-5.12.96l.4-.56h.88c1.07,0,1.99.27,2.78.8.79.53,1.49,1.39,2.1,2.56l3.68,6.76c.24.43.35.84.32,1.24s-.17.73-.44.98c-.27.25-.65.38-1.16.38-.53,0-.96-.11-1.28-.34-.32-.23-.6-.57-.84-1.02l-4.32-7.92c-.59-1.12-1.25-1.86-2-2.22-.75-.36-1.75-.54-3-.54h-4.8v10.12c0,.61-.15,1.09-.46,1.42-.31.33-.78.5-1.42.5ZM353.72,83.54h7.08c2.13,0,3.73-.45,4.8-1.34,1.07-.89,1.6-2.21,1.6-3.94s-.53-3.04-1.6-3.92-2.67-1.32-4.8-1.32h-7.08v10.52Z"/>
    </g>
    <g>
      <path class="cls-2" d="M24.57,51.17c-5.13,0-9.53-1.04-13.19-3.12-3.66-2.08-6.48-5.02-8.44-8.82-1.96-3.8-2.94-8.29-2.94-13.47,0-3.87.56-7.36,1.68-10.46s2.73-5.76,4.83-7.98c2.1-2.22,4.68-3.92,7.74-5.11,3.06-1.19,6.5-1.79,10.32-1.79,2.57,0,5.09.33,7.56.98,2.47.65,4.64,1.59,6.51,2.8.98.61,1.63,1.34,1.96,2.2.33.86.4,1.7.21,2.52-.19.82-.57,1.5-1.16,2.06-.58.56-1.31.88-2.17.95s-1.81-.22-2.83-.88c-1.45-.93-3.01-1.61-4.69-2.03-1.68-.42-3.38-.63-5.11-.63-3.31,0-6.11.68-8.4,2.03-2.29,1.35-4.01,3.31-5.18,5.88-1.17,2.57-1.75,5.72-1.75,9.45s.58,6.84,1.75,9.45c1.17,2.61,2.89,4.6,5.18,5.95,2.29,1.35,5.09,2.03,8.4,2.03,1.77,0,3.52-.22,5.25-.67,1.73-.44,3.36-1.13,4.9-2.06,1.03-.61,1.95-.88,2.76-.81.82.07,1.5.36,2.07.88.56.51.93,1.16,1.12,1.93.19.77.14,1.56-.14,2.38s-.84,1.53-1.68,2.13c-1.87,1.35-4.09,2.39-6.69,3.12-2.59.72-5.21,1.08-7.88,1.08Z"/>
      <path class="cls-2" d="M54.11,51.03c-1.4,0-2.47-.38-3.22-1.15-.75-.77-1.12-1.88-1.12-3.33V4.97c0-1.45.37-2.54,1.12-3.29s1.82-1.12,3.22-1.12,2.49.37,3.25,1.12c.77.75,1.16,1.84,1.16,3.29v18.13h-.98c1.03-2.47,2.62-4.35,4.79-5.63,2.17-1.28,4.63-1.92,7.38-1.92s5.02.51,6.79,1.54c1.77,1.03,3.1,2.58,3.99,4.65.89,2.08,1.33,4.7,1.33,7.88v16.94c0,1.45-.37,2.55-1.12,3.33-.75.77-1.82,1.15-3.22,1.15s-2.48-.38-3.25-1.15c-.77-.77-1.15-1.88-1.15-3.33v-16.52c0-2.66-.5-4.6-1.5-5.81-1-1.21-2.56-1.82-4.66-1.82-2.57,0-4.61.81-6.12,2.42-1.52,1.61-2.28,3.75-2.28,6.41v15.33c0,2.99-1.47,4.48-4.41,4.48Z"/>
      <path class="cls-2" d="M108.99,51.17c-3.87,0-7.21-.72-10.01-2.17s-4.96-3.5-6.48-6.16-2.27-5.81-2.27-9.45.73-6.65,2.21-9.31c1.47-2.66,3.5-4.75,6.09-6.27,2.59-1.52,5.54-2.27,8.85-2.27,2.43,0,4.61.4,6.55,1.19,1.94.79,3.59,1.94,4.97,3.43,1.38,1.49,2.43,3.3,3.15,5.42.72,2.12,1.08,4.51,1.08,7.17,0,.84-.29,1.48-.88,1.92-.58.44-1.41.67-2.48.67h-22.47v-5.04h19.67l-1.12,1.05c0-2.15-.32-3.94-.95-5.39-.63-1.45-1.54-2.55-2.73-3.33-1.19-.77-2.67-1.16-4.45-1.16-1.96,0-3.63.46-5,1.37-1.38.91-2.43,2.19-3.15,3.85-.72,1.66-1.08,3.63-1.08,5.92v.49c0,3.83.9,6.69,2.7,8.58,1.8,1.89,4.44,2.83,7.94,2.83,1.21,0,2.58-.15,4.1-.46,1.52-.3,2.95-.83,4.3-1.58.98-.56,1.84-.8,2.59-.73.75.07,1.34.34,1.79.8.44.47.71,1.04.8,1.71.09.68-.03,1.37-.38,2.07-.35.7-.95,1.31-1.79,1.82-1.63,1.03-3.51,1.78-5.63,2.27-2.12.49-4.09.74-5.92.74Z"/>
      <path class="cls-2" d="M147.28,51.17c-3.59,0-6.72-.74-9.38-2.21s-4.71-3.56-6.16-6.26c-1.45-2.71-2.17-5.88-2.17-9.52,0-2.75.41-5.21,1.22-7.38s2-4.01,3.54-5.53c1.54-1.52,3.41-2.68,5.6-3.5,2.19-.82,4.64-1.22,7.35-1.22,1.54,0,3.21.21,5,.63,1.8.42,3.49,1.12,5.08,2.1.75.47,1.24,1.03,1.47,1.68.23.65.28,1.32.14,1.99-.14.68-.43,1.26-.88,1.75-.44.49-.99.79-1.64.91-.65.12-1.38-.04-2.17-.46-1.03-.61-2.08-1.06-3.15-1.36-1.07-.3-2.1-.46-3.08-.46-1.54,0-2.89.25-4.06.73-1.17.49-2.16,1.19-2.97,2.1-.82.91-1.44,2.04-1.86,3.39-.42,1.35-.63,2.92-.63,4.69,0,3.45.83,6.17,2.49,8.15,1.66,1.98,4,2.98,7.03,2.98.98,0,2-.14,3.04-.42,1.05-.28,2.11-.72,3.19-1.33.79-.42,1.5-.56,2.13-.42.63.14,1.16.46,1.58.94.42.49.68,1.07.77,1.75.09.68.01,1.34-.24,2-.26.65-.74,1.19-1.44,1.61-1.54.93-3.17,1.61-4.9,2.03s-3.36.63-4.9.63Z"/>
      <path class="cls-2" d="M170.24,51.03c-1.4,0-2.47-.38-3.22-1.15-.75-.77-1.12-1.88-1.12-3.33V4.97c0-1.45.37-2.54,1.12-3.29s1.82-1.12,3.22-1.12,2.49.37,3.25,1.12c.77.75,1.16,1.84,1.16,3.29v25.83h.14l11.55-12.18c.93-.93,1.75-1.66,2.45-2.17.7-.51,1.66-.77,2.87-.77s2.14.32,2.77.95.94,1.39.94,2.27-.42,1.77-1.26,2.66l-12.18,12.88v-3.64l13.37,14.42c.84.89,1.22,1.79,1.16,2.7-.07.91-.46,1.66-1.16,2.24s-1.59.88-2.66.88c-1.31,0-2.34-.26-3.12-.77-.77-.51-1.62-1.28-2.55-2.31l-12.18-12.74h-.14v11.34c0,2.99-1.47,4.48-4.41,4.48Z"/>
      <path class="cls-2" d="M209.16,63.63c-1.4,0-2.47-.37-3.22-1.12s-1.12-1.84-1.12-3.29V20.09c0-1.45.37-2.54,1.12-3.29s1.8-1.12,3.15-1.12,2.47.37,3.22,1.12c.75.75,1.12,1.84,1.12,3.29v5.46l-.77-2.1c.7-2.38,2.14-4.29,4.31-5.74,2.17-1.45,4.7-2.17,7.59-2.17s5.61.72,7.88,2.17c2.26,1.45,4.03,3.49,5.29,6.12,1.26,2.64,1.89,5.8,1.89,9.48s-.63,6.8-1.89,9.49c-1.26,2.68-3.01,4.75-5.25,6.2s-4.88,2.17-7.91,2.17c-2.85,0-5.34-.71-7.49-2.13s-3.59-3.28-4.34-5.57h.84v15.75c0,1.45-.38,2.54-1.16,3.29-.77.75-1.85,1.12-3.25,1.12ZM222.11,44.52c1.73,0,3.24-.42,4.55-1.26s2.32-2.09,3.04-3.75c.72-1.66,1.08-3.72,1.08-6.2,0-3.73-.79-6.52-2.38-8.36-1.59-1.84-3.69-2.77-6.3-2.77-1.73,0-3.24.41-4.55,1.23-1.31.82-2.32,2.05-3.04,3.71-.72,1.66-1.08,3.72-1.08,6.19,0,3.69.79,6.48,2.38,8.37,1.59,1.89,3.69,2.83,6.3,2.83Z"/>
      <path class="cls-2" d="M263.83,51.17c-3.55,0-6.63-.72-9.24-2.17-2.61-1.45-4.64-3.51-6.09-6.2-1.45-2.68-2.17-5.84-2.17-9.49,0-2.75.41-5.21,1.22-7.38s2-4.04,3.54-5.6,3.38-2.75,5.53-3.57c2.15-.82,4.55-1.22,7.21-1.22,3.55,0,6.63.72,9.24,2.17,2.61,1.45,4.64,3.5,6.09,6.16,1.45,2.66,2.17,5.81,2.17,9.45,0,2.75-.41,5.23-1.23,7.42-.82,2.19-1.99,4.07-3.53,5.64s-3.38,2.75-5.53,3.57c-2.15.82-4.55,1.23-7.21,1.23ZM263.83,44.52c1.73,0,3.24-.42,4.55-1.26,1.31-.84,2.32-2.09,3.04-3.75.72-1.66,1.08-3.72,1.08-6.2,0-3.73-.79-6.52-2.38-8.36-1.59-1.84-3.69-2.77-6.3-2.77-1.73,0-3.24.41-4.55,1.23-1.31.82-2.32,2.05-3.04,3.71-.72,1.66-1.08,3.72-1.08,6.19,0,3.69.79,6.48,2.38,8.37,1.59,1.89,3.69,2.83,6.3,2.83Z"/>
      <path class="cls-2" d="M294.28,9.24c-1.63,0-2.9-.41-3.81-1.22-.91-.82-1.37-1.95-1.37-3.39s.46-2.64,1.37-3.43c.91-.79,2.18-1.19,3.81-1.19s2.96.4,3.85,1.19c.89.79,1.33,1.94,1.33,3.43s-.44,2.58-1.33,3.39c-.89.82-2.17,1.22-3.85,1.22ZM294.28,50.96c-1.4,0-2.47-.42-3.22-1.26-.75-.84-1.12-2.01-1.12-3.5v-25.69c0-1.54.37-2.72,1.12-3.54.75-.82,1.82-1.22,3.22-1.22s2.49.41,3.25,1.22c.77.82,1.16,2,1.16,3.54v25.69c0,1.49-.37,2.66-1.12,3.5-.75.84-1.84,1.26-3.29,1.26Z"/>
      <path class="cls-2" d="M313.52,51.03c-1.4,0-2.47-.38-3.22-1.15-.75-.77-1.12-1.88-1.12-3.33v-26.46c0-1.45.37-2.54,1.12-3.29s1.8-1.12,3.15-1.12,2.4.37,3.15,1.12c.75.75,1.12,1.84,1.12,3.29v4.76l-.77-1.75c1.03-2.47,2.62-4.35,4.79-5.63,2.17-1.28,4.63-1.92,7.38-1.92s5.02.51,6.79,1.54c1.77,1.03,3.1,2.58,3.99,4.65.89,2.08,1.33,4.7,1.33,7.88v16.94c0,1.45-.37,2.55-1.12,3.33-.75.77-1.82,1.15-3.22,1.15s-2.48-.38-3.25-1.15c-.77-.77-1.15-1.88-1.15-3.33v-16.52c0-2.66-.5-4.6-1.5-5.81-1-1.21-2.56-1.82-4.66-1.82-2.57,0-4.61.81-6.12,2.42-1.52,1.61-2.28,3.75-2.28,6.41v15.33c0,2.99-1.47,4.48-4.41,4.48Z"/>
      <path class="cls-2" d="M367.21,51.17c-3.03,0-5.57-.51-7.6-1.54-2.03-1.03-3.54-2.53-4.51-4.52-.98-1.98-1.47-4.44-1.47-7.38v-14.91h-3.64c-1.12,0-1.98-.29-2.59-.88-.61-.58-.91-1.39-.91-2.42s.3-1.89.91-2.45c.61-.56,1.47-.84,2.59-.84h3.64v-6.37c0-1.45.38-2.54,1.15-3.29.77-.75,1.86-1.12,3.25-1.12s2.47.37,3.22,1.12c.75.75,1.12,1.84,1.12,3.29v6.37h7.42c1.12,0,1.98.28,2.59.84.61.56.91,1.38.91,2.45s-.3,1.83-.91,2.42c-.61.58-1.47.88-2.59.88h-7.42v14.42c0,2.24.49,3.92,1.47,5.04.98,1.12,2.57,1.68,4.76,1.68.79,0,1.49-.07,2.1-.21.61-.14,1.14-.23,1.61-.28.56-.05,1.03.13,1.4.53.37.4.56,1.2.56,2.42,0,.93-.15,1.76-.46,2.48-.3.72-.85,1.23-1.64,1.5-.61.19-1.4.36-2.38.53-.98.16-1.84.25-2.59.25Z"/>
    </g>
    <circle class="cls-1" cx="406.28" cy="43.72" r="8.42"/>
  </g>
</svg>