<?xml version="1.0" encoding="UTF-8" standalone="no"?>
<!-- Created with Inkscape (http://www.inkscape.org/) -->

<svg
   xmlns:dc="http://purl.org/dc/elements/1.1/"
   xmlns:cc="http://creativecommons.org/ns#"
   xmlns:rdf="http://www.w3.org/1999/02/22-rdf-syntax-ns#"
   xmlns:svg="http://www.w3.org/2000/svg"
   xmlns="http://www.w3.org/2000/svg"
   xmlns:sodipodi="http://sodipodi.sourceforge.net/DTD/sodipodi-0.dtd"
   xmlns:inkscape="http://www.inkscape.org/namespaces/inkscape"
   width="125"
   height="25"
   id="svg4682"
   version="1.1"
   inkscape:version="0.91 r13725"
   sodipodi:docname="norsktest-man-left-of-longtext-white-text.svg"
   inkscape:export-filename="W:\srv\data\static\logo\svg\norsktest-man-left-of-longtext.png"
   inkscape:export-xdpi="90"
   inkscape:export-ydpi="90">
  <defs
     id="defs4684" />
  <sodipodi:namedview
     id="base"
     pagecolor="#ffffff"
     bordercolor="#666666"
     borderopacity="1.0"
     inkscape:pageopacity="0.0"
     inkscape:pageshadow="2"
     inkscape:zoom="8"
     inkscape:cx="73.695202"
     inkscape:cy="9.639504"
     inkscape:document-units="px"
     inkscape:current-layer="layer1"
     showgrid="false"
     inkscape:window-width="1920"
     inkscape:window-height="1137"
     inkscape:window-x="1912"
     inkscape:window-y="-8"
     inkscape:window-maximized="1" />
  <metadata
     id="metadata4687">
    <rdf:RDF>
      <cc:Work
         rdf:about="">
        <dc:format>image/svg+xml</dc:format>
        <dc:type
           rdf:resource="http://purl.org/dc/dcmitype/StillImage" />
        <dc:title></dc:title>
      </cc:Work>
    </rdf:RDF>
  </metadata>
  <g
     inkscape:label="Layer 1"
     inkscape:groupmode="layer"
     id="layer1"
     transform="translate(0,-1027.3622)">
    <g
       transform="matrix(0.06358938,0,0,0.06358938,0.85339075,1026.9924)"
       id="g3047"
       style="fill:#FDB827;fill-opacity:1">
      <g
         transform="matrix(1.5,0,0,1.5,-25.5,-13.5)"
         id="dots"
         style="fill:#FDB827;fill-opacity:1">
        <ellipse
           sodipodi:ry="12"
           sodipodi:rx="12"
           sodipodi:cy="238.7"
           sodipodi:cx="95.300003"
           id="ellipse9"
           ry="12"
           rx="12"
           cy="238.7"
           cx="95.300003"
           class="color"
           style="fill:#FDB827;fill-opacity:1" />
        <ellipse
           sodipodi:ry="12"
           sodipodi:rx="12"
           sodipodi:cy="198.5"
           sodipodi:cx="55.599998"
           id="ellipse11"
           ry="12"
           rx="12"
           cy="198.5"
           cx="55.599998"
           class="color"
           style="fill:#FDB827;fill-opacity:1" />
        <ellipse
           sodipodi:ry="12"
           sodipodi:rx="12"
           sodipodi:cy="143.8"
           sodipodi:cx="41"
           id="ellipse13"
           ry="12"
           rx="12"
           cy="143.8"
           cx="41"
           class="color"
           style="fill:#FDB827;fill-opacity:1" />
        <ellipse
           sodipodi:ry="12"
           sodipodi:rx="12"
           sodipodi:cy="88"
           sodipodi:cx="55.599998"
           id="ellipse15"
           ry="12"
           rx="12"
           cy="88"
           cx="55.599998"
           class="color"
           style="fill:#FDB827;fill-opacity:1" />
        <ellipse
           sodipodi:ry="12"
           sodipodi:rx="12"
           sodipodi:cy="47.799999"
           sodipodi:cx="95.300003"
           id="ellipse17"
           ry="12"
           rx="12"
           cy="47.799999"
           cx="95.300003"
           class="color"
           style="fill:#FDB827;fill-opacity:1" />
        <ellipse
           sodipodi:ry="12"
           sodipodi:rx="12"
           sodipodi:cy="32.900002"
           sodipodi:cx="149.7"
           id="ellipse19"
           ry="12"
           rx="12"
           cy="32.900002"
           cx="149.7"
           class="color"
           style="fill:#FDB827;fill-opacity:1" />
        <ellipse
           sodipodi:ry="12"
           sodipodi:rx="12"
           sodipodi:cy="47"
           sodipodi:cx="204.2"
           id="ellipse21"
           ry="12"
           rx="12"
           cy="47"
           cx="204.2"
           class="color"
           style="fill:#FDB827;fill-opacity:1" />
        <ellipse
           sodipodi:ry="12"
           sodipodi:rx="12"
           sodipodi:cy="88"
           sodipodi:cx="244.5"
           id="ellipse23"
           ry="12"
           rx="12"
           cy="88"
           cx="244.5"
           class="color"
           style="fill:#FDB827;fill-opacity:1" />
        <ellipse
           sodipodi:ry="12"
           sodipodi:rx="12"
           sodipodi:cy="142.7"
           sodipodi:cx="259"
           id="ellipse25"
           ry="12"
           rx="12"
           cy="142.7"
           cx="259"
           class="color"
           style="fill:#FDB827;fill-opacity:1" />
        <ellipse
           sodipodi:ry="12"
           sodipodi:rx="12"
           sodipodi:cy="198.5"
           sodipodi:cx="244.39999"
           id="ellipse27"
           ry="12"
           rx="12"
           cy="198.5"
           cx="244.39999"
           class="color"
           style="fill:#FDB827;fill-opacity:1" />
        <ellipse
           sodipodi:ry="12"
           sodipodi:rx="12"
           sodipodi:cy="238.7"
           sodipodi:cx="204.2"
           id="ellipse29"
           ry="12"
           rx="12"
           cy="238.7"
           cx="204.2"
           class="color"
           style="fill:#FDB827;fill-opacity:1" />
      </g>
      <ellipse
         sodipodi:ry="29.472"
         sodipodi:rx="37.160999"
         sodipodi:cy="112.39"
         sodipodi:cx="200"
         ry="29.472"
         rx="37.160999"
         cy="112.39"
         cx="200"
         id="head"
         class="color"
         style="fill:#FDB827;fill-opacity:1" />
      <path
         inkscape:connector-curvature="0"
         d="m 252,225 a 37,75 0 0 1 -22,62 30,99 0 0 1 -60,0 37,75 0 0 1 -22,-62 v -35 a 36,35 0 0 1 37,-35 h 35 a 36,35 0 0 1 32,35 z"
         class="color"
         id="body"
         style="fill:#FDB827;fill-opacity:1" />
    </g>
    <g
       transform="matrix(0.60442385,0,0,0.60442385,30.593578,954.79568)"
       id="g7"
       style="fill:#ffffff">
      <g
         id="g9"
         style="fill:#ffffff">
        <path
           inkscape:connector-curvature="0"
           d="m 24.069,136.866 c 2.862,0 4.719,0.442 5.573,1.324 0.854,0.88 1.279,2.8 1.279,5.754 0,2.955 -0.426,4.873 -1.279,5.757 -0.854,0.883 -2.711,1.324 -5.573,1.324 -2.853,0 -4.704,-0.441 -5.558,-1.324 -0.854,-0.884 -1.277,-2.802 -1.277,-5.757 0,-2.954 0.424,-4.874 1.277,-5.754 0.854,-0.881 2.706,-1.324 5.558,-1.324 z m 0,1.693 c -2.016,0 -3.264,0.29 -3.746,0.867 -0.481,0.579 -0.723,2.084 -0.723,4.519 0,2.437 0.241,3.942 0.723,4.521 0.482,0.578 1.73,0.867 3.746,0.867 2.024,0 3.28,-0.289 3.762,-0.867 0.482,-0.578 0.724,-2.084 0.724,-4.521 0,-2.435 -0.241,-3.939 -0.724,-4.519 -0.481,-0.577 -1.737,-0.867 -3.762,-0.867 z"
           id="path11"
           style="fill:#ffffff" />
        <path
           inkscape:connector-curvature="0"
           d="m 58.701,140.663 h -2.269 c 0,-0.948 -0.218,-1.537 -0.655,-1.764 -0.437,-0.226 -1.561,-0.341 -3.372,-0.341 -1.682,0 -2.749,0.123 -3.202,0.366 -0.452,0.245 -0.679,0.831 -0.679,1.76 0,1.406 0.761,2.144 2.282,2.211 l 1.827,0.085 2.313,0.103 c 2.805,0.124 4.206,1.428 4.206,3.904 0,1.544 -0.464,2.602 -1.394,3.175 -0.93,0.575 -2.628,0.863 -5.103,0.863 -2.538,0 -4.285,-0.274 -5.24,-0.82 -0.956,-0.543 -1.434,-1.545 -1.434,-3 l 0.024,-0.748 h 2.347 l -0.003,0.641 c 0,0.892 0.26,1.486 0.778,1.785 0.522,0.3 1.545,0.449 3.074,0.449 1.872,0 3.105,-0.159 3.696,-0.475 0.589,-0.314 0.885,-0.978 0.885,-1.981 0,-1.445 -0.74,-2.169 -2.216,-2.169 -3.442,0 -5.703,-0.257 -6.786,-0.774 -1.085,-0.517 -1.626,-1.591 -1.626,-3.217 0,-1.542 0.427,-2.569 1.285,-3.081 0.855,-0.513 2.559,-0.769 5.11,-0.769 4.093,0 6.139,1.097 6.139,3.291 l 0.013,0.506 z"
           id="path13"
           style="fill:#ffffff" />
        <path
           inkscape:connector-curvature="0"
           d="m 65.562,133.185 v 9.426 h 1.034 l 5.473,-5.539 h 2.849 l -6.621,6.342 7.82,7.405 h -3.06 l -6.575,-6.616 h -0.92 v 6.616 h -2.254 v -17.634 h 2.254 z"
           id="path15"
           style="fill:#ffffff" />
        <path
           inkscape:connector-curvature="0"
           d="m 126.251,140.663 h -2.267 c 0,-0.948 -0.219,-1.537 -0.655,-1.764 -0.438,-0.226 -1.561,-0.341 -3.372,-0.341 -1.683,0 -2.749,0.123 -3.202,0.366 -0.452,0.245 -0.678,0.831 -0.678,1.76 0,1.406 0.76,2.144 2.279,2.211 l 1.829,0.085 2.313,0.103 c 2.804,0.124 4.207,1.428 4.207,3.904 0,1.544 -0.466,2.602 -1.396,3.175 -0.928,0.575 -2.628,0.863 -5.101,0.863 -2.538,0 -4.287,-0.274 -5.241,-0.82 -0.955,-0.543 -1.434,-1.545 -1.434,-3 l 0.025,-0.748 h 2.346 l -0.002,0.641 c 0,0.892 0.26,1.486 0.778,1.785 0.521,0.3 1.544,0.449 3.071,0.449 1.873,0 3.106,-0.159 3.698,-0.475 0.59,-0.314 0.886,-0.978 0.886,-1.981 0,-1.445 -0.74,-2.169 -2.217,-2.169 -3.44,0 -5.702,-0.257 -6.787,-0.774 -1.084,-0.517 -1.625,-1.591 -1.625,-3.217 0,-1.542 0.427,-2.569 1.284,-3.081 0.854,-0.513 2.559,-0.769 5.112,-0.769 4.092,0 6.139,1.097 6.139,3.291 l 0.01,0.506 z"
           id="path17"
           style="fill:#ffffff" />
        <path
           inkscape:connector-curvature="0"
           d="m 108.288,149.327 c -0.164,0.002 -5.363,0.005 -5.54,0.005 -1.922,0 -3.144,-0.296 -3.666,-0.882 -0.525,-0.587 -0.786,-1.951 -0.786,-4.096 h 11.137 v -1.083 c 0,-2.631 -0.44,-4.357 -1.326,-5.177 -0.884,-0.819 -2.747,-1.229 -5.59,-1.229 -2.608,0 -4.36,0.47 -5.255,1.41 -0.893,0.939 -1.34,2.781 -1.34,5.523 0,2.965 0.445,4.91 1.332,5.836 0.889,0.927 2.752,1.39 5.597,1.39 0.141,0 5.303,-0.007 5.438,-0.007 v -1.69 z m -9.142,-9.986 c 0.543,-0.52 1.734,-0.782 3.568,-0.782 1.824,0 3.009,0.223 3.563,0.667 0.55,0.447 0.826,1.411 0.826,2.892 l 0.016,0.647 h -8.791 c 0,-1.761 0.274,-2.902 0.818,-3.424 z"
           id="path19"
           style="fill:#ffffff" />
        <path
           inkscape:connector-curvature="0"
           d="m 139.438,149.339 c -0.019,0 -2.838,-0.007 -2.855,-0.007 -0.01,0 -0.019,0 -0.026,0 -1.464,-0.011 -2.194,-0.735 -2.194,-2.179 v -8.39 h 5.048 v -1.692 h -5.048 v -3.283 h -2.251 v 3.283 h -2.14 v 1.692 h 2.14 v 8.39 0.488 c 0,2.241 1.474,3.366 4.43,3.384 0.02,0 0.04,0 0.06,0 0.014,0 2.826,-0.001 2.838,-0.001 v -1.685 z"
           id="path21"
           style="fill:#ffffff" />
        <path
           inkscape:connector-curvature="0"
           d="m 93.207,149.339 c -0.018,0 -3.36,-0.007 -3.38,-0.007 -0.009,0 -0.018,0 -0.028,0 -1.461,-0.011 -2.19,-0.735 -2.19,-2.179 v -8.39 h 4.984 v -1.692 h -4.984 v -3.283 h -2.254 v 3.283 h -2.136 v 1.692 h 2.136 v 8.39 0.488 c 0,2.241 1.478,3.366 4.431,3.384 0.021,0 0.042,0 0.062,0 0.013,0 3.35,-0.001 3.36,-0.001 v -1.685 z"
           id="path23"
           style="fill:#ffffff" />
        <path
           inkscape:connector-curvature="0"
           d="m 40.575,136.873 c -2.219,0.039 -3.547,0.269 -4.333,0.737 -0.837,0.501 -1.326,1.452 -1.345,2.938 v 10.271 h 2.253 v -10.243 c 0.019,-0.861 0.239,-1.416 0.675,-1.65 0.407,-0.219 1.317,-0.338 2.721,-0.361 0.085,-0.001 3.03,-0.004 3.119,-0.004 v -1.688 c -0.077,-10e-4 -3.013,-10e-4 -3.09,0 z"
           id="path25"
           style="fill:#ffffff" />
        <path
           inkscape:connector-curvature="0"
           d="m 11.397,137.61 c -0.785,-0.469 -2.114,-0.698 -4.332,-0.737 -0.018,0 -0.198,0 -0.452,0 v -10e-4 c -0.506,10e-4 -0.909,10e-4 -0.937,10e-4 -2.217,0.039 -3.547,0.269 -4.332,0.737 -0.837,0.501 -1.326,1.452 -1.345,2.938 v 10.271 h 2.253 v -10.243 c 0.018,-0.861 0.239,-1.416 0.674,-1.65 0.408,-0.219 1.318,-0.338 2.722,-0.361 0.029,0 0.402,-0.001 0.878,-0.001 0.318,0.001 0.545,0.001 0.567,0.001 1.403,0.023 2.314,0.143 2.722,0.361 0.435,0.234 0.657,0.789 0.675,1.65 v 10.243 h 2.253 v -10.271 c -0.018,-1.485 -0.508,-2.437 -1.346,-2.938 z"
           id="path27"
           style="fill:#ffffff" />
      </g>
    </g>
  </g>
</svg>
